# Blender v2.65 (sub 0) OBJ File: 'dogthing.blend'
# www.blender.org
mtllib dogthing.mtl
o Cube
v 0.111512 0.302382 0.034683
v 0.103196 0.299935 0.124143
v 0.124143 0.508729 0.125196
v 0.124143 0.508729 0.150176
v 0.124143 0.384587 0.105066
v 0.124143 0.384587 0.124143
v 0.062071 0.448125 0.124143
v 0.041467 0.288318 0.274864
v 0.079830 0.469232 0.073023
v 0.028918 0.266015 0.009251
v 0.029074 0.340197 0.274864
v 0.062071 0.384587 -0.013430
v 0.051769 0.274381 0.130717
v 0.056920 0.267412 0.058643
v 0.051769 0.274381 0.130717
v 0.056920 0.267412 0.058643
v 0.051769 0.100706 0.146100
v 0.056920 0.093737 0.078306
v 0.008783 -0.000097 0.073856
v 0.008783 0.006872 0.146016
v 0.060552 0.012269 0.145593
v 0.065703 0.005300 0.074875
v 0.056920 0.211647 0.060424
v 0.000382 0.082034 -0.245666
v 0.057302 0.087432 -0.239317
v 0.000382 0.220836 -0.260136
v 0.057302 0.205341 -0.247423
v 0.000382 0.082034 -0.245666
v 0.057302 0.087432 -0.239317
v 0.000382 0.220836 -0.260136
v 0.057302 0.205341 -0.247423
v 0.000311 0.083203 -0.185799
v 0.057243 0.088413 -0.191066
v 0.000382 0.082034 -0.245666
v 0.057302 0.087432 -0.239317
v 0.000311 0.083203 -0.185799
v 0.057243 0.088413 -0.191066
v 0.008025 0.001419 -0.233257
v 0.064946 0.006816 -0.230328
v 0.007955 0.002588 -0.176517
v 0.064886 0.007797 -0.183678
v 0.006312 0.416062 0.010043
v -0.111512 0.302382 0.034683
v -0.103196 0.299935 0.124143
v -0.124143 0.508729 0.125196
v -0.124143 0.508729 0.150176
v 0.000000 0.448125 0.124143
v 0.000000 0.288318 0.274864
v -0.000000 0.412433 -0.002874
v -0.000000 0.262666 0.002107
v -0.124143 0.384587 0.105066
v -0.124143 0.384587 0.124143
v 0.000000 0.351857 0.274864
v -0.000000 0.384587 -0.013430
v -0.062071 0.448125 0.124143
v -0.041467 0.288318 0.274864
v -0.079830 0.469232 0.073023
v -0.028918 0.266015 0.009251
v -0.029074 0.340197 0.274864
v -0.062071 0.384587 -0.013430
v -0.000000 0.267412 0.058643
v -0.000000 0.274381 0.130717
v -0.051769 0.274381 0.130717
v -0.056920 0.267412 0.058643
v -0.000000 0.267412 0.058643
v -0.000000 0.274381 0.130717
v -0.051769 0.274381 0.130717
v -0.056920 0.267412 0.058643
v -0.000000 0.088340 0.075451
v -0.000000 0.095309 0.146497
v -0.051769 0.100706 0.146100
v -0.056920 0.093737 0.078306
v -0.008783 -0.000097 0.073856
v -0.008783 0.006872 0.146016
v -0.060552 0.012269 0.145593
v -0.065703 0.005300 0.074875
v -0.000000 0.227142 0.059501
v -0.056920 0.211647 0.060424
v -0.000382 0.082034 -0.245666
v -0.057302 0.087432 -0.239317
v -0.000382 0.220836 -0.260136
v -0.057302 0.205341 -0.247423
v -0.000382 0.082034 -0.245666
v -0.057302 0.087432 -0.239317
v -0.000382 0.220836 -0.260136
v -0.057302 0.205341 -0.247423
v -0.000311 0.083203 -0.185799
v -0.057243 0.088413 -0.191066
v -0.000382 0.082034 -0.245666
v -0.057302 0.087432 -0.239317
v -0.000311 0.083203 -0.185799
v -0.057243 0.088413 -0.191066
v -0.008025 0.001419 -0.233257
v -0.064946 0.006816 -0.230328
v -0.007955 0.002588 -0.176517
v -0.064886 0.007797 -0.183678
v -0.000000 0.279024 -0.010029
v -0.006312 0.416062 0.010043
vt 0.145587 0.525862
vt 0.216809 0.577997
vt 0.000202 0.731505
vt 0.379142 0.784194
vt 0.534077 0.772743
vt 0.515400 0.776887
vt 0.350403 0.813503
vt 0.334530 0.726539
vt 0.373783 0.782932
vt 0.366280 0.783794
vt 0.322749 0.734568
vt 0.068907 0.815292
vt 0.025868 0.864527
vt 0.445929 0.531534
vt 0.484723 0.494738
vt 0.511664 0.527403
vt 0.268689 0.643477
vt 0.056622 0.741533
vt 0.475028 0.697099
vt 0.342487 0.541365
vt 0.373929 0.622545
vt 0.388097 0.445107
vt 0.211655 0.444703
vt 0.168418 0.408216
vt 0.172797 0.402282
vt 0.216036 0.438770
vt 0.000202 0.351225
vt 0.069080 0.375583
vt 0.072834 0.366830
vt 0.003955 0.342472
vt 0.148986 0.129521
vt 0.206868 0.331153
vt 0.239983 0.140966
vt 0.789915 0.536888
vt 0.800538 0.445107
vt 0.915581 0.445106
vt 0.904932 0.538329
vt 0.089061 0.103218
vt 0.241856 0.408172
vt 0.632456 0.368359
vt 0.658318 0.444703
vt 0.199299 0.053816
vt 0.169062 0.056980
vt 0.142885 0.020783
vt 0.218536 0.000202
vt 0.288232 0.072391
vt 0.644058 0.368022
vt 0.667893 0.440788
vt 0.623768 0.178299
vt 0.611845 0.241009
vt 0.666177 0.263054
vt 0.679975 0.267737
vt 0.748342 0.290144
vt 0.707839 0.179178
vt 0.719122 0.183555
vt 0.818139 0.654790
vt 0.817900 0.871006
vt 0.789915 0.871006
vt 0.789915 0.656608
vt 0.999798 0.404632
vt 0.908209 0.444703
vt 0.902219 0.433130
vt 0.993808 0.393059
vt 0.819287 0.435343
vt 0.748745 0.389387
vt 0.754124 0.379820
vt 0.824667 0.425778
vt 0.857355 0.348041
vt 0.888080 0.340881
vt 0.821240 0.280472
vt 0.920626 0.280472
vt 0.866734 0.654387
vt 0.789915 0.644148
vt 0.793914 0.538732
vt 0.866734 0.548358
vt 0.374495 0.896716
vt 0.577484 0.695840
vn 0.000000 -0.995331 0.096225
vn 0.314859 -0.942289 0.113590
vn 0.000000 -0.672201 0.740349
vn 0.064302 0.868587 -0.491317
vn 0.000000 0.701621 -0.712516
vn -0.343577 0.934324 -0.094638
vn -0.204627 0.826411 0.524552
vn 0.976684 0.011292 -0.214240
vn 0.397809 0.873287 -0.281198
vn 0.273507 0.666982 0.693014
vn 0.928800 0.019562 0.370006
vn 0.411206 0.340495 0.845515
vn 0.000000 0.520218 0.853999
vn 0.323283 -0.802271 -0.501816
vn 0.000000 -0.890133 -0.455611
vn 0.000000 -0.362346 -0.932005
vn 0.795618 -0.579089 0.177770
vn 0.454573 -0.544359 0.704947
vn 0.450789 0.241890 -0.859218
vn 0.387432 -0.920377 -0.052614
vn 0.809687 -0.405530 -0.424177
vn 0.000000 -0.998871 0.046968
vn 0.747520 -0.014374 -0.664052
vn 0.000000 -0.027467 -0.999603
vn 0.679556 0.065157 0.730705
vn 0.000000 0.087985 0.996094
vn 0.660756 0.063631 0.747856
vn 0.939940 0.272988 -0.204779
vn 0.937407 -0.243263 -0.249062
vn 0.000000 -0.007752 0.999969
vn 0.000000 -0.752037 -0.659078
vn -0.503159 -0.653462 -0.565477
vn -0.520798 -0.601978 0.605243
vn 0.000000 0.619526 -0.784936
vn 0.758293 0.651753 -0.012146
vn 0.264718 0.964110 -0.019044
vn 0.653859 -0.535264 -0.534715
vn 0.615528 -0.490371 0.616932
vn 0.157048 -0.086520 -0.983764
vn 0.093142 -0.995453 0.019715
vn 0.912198 -0.409619 0.009186
vn 0.999969 0.000122 0.001190
vn 0.001465 0.316721 -0.948485
vn -0.748772 -0.138005 -0.648274
vn 0.693564 -0.008698 -0.720298
vn 0.634693 0.160466 0.755882
vn -0.718894 0.023988 0.694693
vn -0.656423 0.555834 0.509995
vn -0.651753 0.493912 -0.575518
vn 0.504044 0.668294 0.547044
vn 0.488998 0.581011 -0.650563
vn 0.000000 0.989166 0.146672
vn 0.000000 0.164312 -0.986389
vn -0.314859 -0.942289 0.113590
vn -0.064302 0.868587 -0.491317
vn 0.204627 0.826411 0.524552
vn 0.343577 0.934324 -0.094638
vn -0.976684 0.011292 -0.214240
vn -0.928800 0.019562 0.370006
vn -0.273507 0.666982 0.693014
vn -0.397809 0.873287 -0.281198
vn -0.411206 0.340495 0.845515
vn -0.323283 -0.802271 -0.501816
vn -0.795618 -0.579089 0.177770
vn -0.454573 -0.544359 0.704947
vn -0.450789 0.241890 -0.859218
vn -0.387432 -0.920377 -0.052614
vn -0.809687 -0.405530 -0.424177
vn -0.747520 -0.014374 -0.664052
vn -0.679556 0.065157 0.730705
vn -0.660756 0.063631 0.747856
vn -0.939940 0.272988 -0.204779
vn -0.937407 -0.243263 -0.249062
vn 0.520798 -0.601978 0.605243
vn 0.503159 -0.653462 -0.565477
vn -0.264718 0.964110 -0.019044
vn -0.758293 0.651753 -0.012146
vn -0.653859 -0.535264 -0.534715
vn -0.615528 -0.490371 0.616932
vn -0.157048 -0.086520 -0.983764
vn -0.912198 -0.409619 0.009186
vn -0.093142 -0.995453 0.019715
vn -0.999969 0.000122 0.001190
vn -0.001465 0.316721 -0.948485
vn -0.693564 -0.008698 -0.720298
vn 0.748772 -0.138005 -0.648274
vn 0.718894 0.023988 0.694693
vn -0.634693 0.160466 0.755882
vn 0.651753 0.493912 -0.575518
vn 0.656423 0.555834 0.509995
vn -0.488998 0.581011 -0.650563
vn -0.504044 0.668294 0.547044
usemtl Material.002
s 1
f 62/1/1 13/2/2 48/3/3
f 9/4/4 49/5/5 42/6/6 7/7/7
f 5/8/8 3/9/9 4/10/10 6/11/11
f 11/12/12 7/7/7 53/13/13
f 10/14/14 50/15/15 97/16/16
f 5/8/8 6/11/11 2/17/17
f 8/18/18 11/12/12 53/13/13 48/3/3
f 9/4/4 12/19/19 49/5/5
f 2/17/17 13/2/2 14/20/20
f 3/9/9 9/4/4 7/7/7 4/10/10
f 11/12/12 6/11/11 7/7/7
f 5/8/8 1/21/21 12/19/19
f 2/17/17 6/11/11 8/18/18
f 5/8/8 12/19/19 9/4/4
f 10/14/14 14/20/20 61/22/22
f 61/23/22 14/24/20 16/25/23 65/26/24
f 62/27/1 13/28/2 15/29/25 66/30/26
f 16/25/23 15/29/25 17/31/27
f 16/25/23 17/31/27 23/32/28
f 17/31/27 18/33/29 23/32/28
f 70/34/30 69/35/31 19/36/32 20/37/33
f 15/29/25 66/30/26 70/38/30 17/31/27
f 77/39/34 23/32/28 27/40/35 26/41/36
f 22/42/37 21/43/38 20/44/33 19/45/32
f 17/31/27 70/38/30 20/44/33 21/43/38
f 69/46/31 18/33/29 22/42/37 19/45/32
f 18/33/29 17/31/27 21/43/38 22/42/37
f 65/26/24 16/25/23 23/32/28 77/39/34
f 26/41/36 27/40/35 31/47/39 30/48/39
f 18/33/29 69/46/31 32/49/40 33/50/41
f 23/32/28 18/33/29 27/40/35
f 18/33/29 33/50/41 27/40/35
f 33/50/41 25/51/42 27/40/35
f 30/48/39 31/47/39 29/52/39 28/53/39
f 25/51/42 24/54/43 28/55/39 29/52/39
f 24/56/43 26/57/36 30/58/39 28/59/39
f 27/40/35 25/51/42 29/52/39 31/47/39
f 32/60/40 33/61/41 37/62/44 36/63/45
f 29/64/39 28/65/39 34/66/46 35/67/47
f 37/62/44 35/67/47 39/68/48 41/69/49
f 41/69/49 39/68/48 38/70/50 40/71/51
f 34/72/46 36/73/45 40/74/51 38/75/50
f 35/67/47 34/66/46 38/70/50 39/68/48
f 36/63/45 37/62/44 41/69/49 40/71/51
f 12/19/19 10/14/14 97/16/16
f 3/9/9 5/8/8 9/4/4
f 6/11/11 4/10/10 7/7/7
f 49/5/5 47/76/52 7/7/7 42/6/6
f 1/21/21 10/14/14 12/19/19
f 6/11/11 11/12/12 8/18/18
f 7/7/7 47/76/52 53/13/13
f 1/21/21 5/8/8 2/17/17
f 12/19/19 54/77/53 49/5/5
f 54/77/53 12/19/19 97/16/16
f 2/17/17 8/18/18 13/2/2
f 10/14/14 1/21/21 14/20/20
f 1/21/21 2/17/17 14/20/20
f 50/15/15 10/14/14 61/22/22
f 13/2/2 8/18/18 48/3/3
f 62/1/1 48/3/3 63/2/54
f 57/4/55 55/7/56 98/6/57 49/5/5
f 51/8/58 52/11/59 46/10/60 45/9/61
f 59/12/62 53/13/13 55/7/56
f 58/14/63 97/16/16 50/15/15
f 51/8/58 44/17/64 52/11/59
f 56/18/65 48/3/3 53/13/13 59/12/62
f 57/4/55 49/5/5 60/19/66
f 44/17/64 64/20/67 63/2/54
f 45/9/61 46/10/60 55/7/56 57/4/55
f 59/12/62 55/7/56 52/11/59
f 51/8/58 60/19/66 43/21/68
f 44/17/64 56/18/65 52/11/59
f 51/8/58 57/4/55 60/19/66
f 58/14/63 61/22/22 64/20/67
f 61/23/22 65/26/24 68/25/69 64/24/67
f 62/27/1 66/30/26 67/29/70 63/28/54
f 68/25/69 71/31/71 67/29/70
f 68/25/69 78/32/72 71/31/71
f 78/32/72 72/33/73 71/31/71
f 70/34/30 74/37/74 73/36/75 69/35/31
f 67/29/70 71/31/71 70/38/30 66/30/26
f 77/39/34 81/41/76 82/40/77 78/32/72
f 76/42/78 73/45/75 74/44/74 75/43/79
f 71/31/71 75/43/79 74/44/74 70/38/30
f 69/46/31 73/45/75 76/42/78 72/33/73
f 72/33/73 76/42/78 75/43/79 71/31/71
f 65/26/24 77/39/34 78/32/72 68/25/69
f 81/41/76 85/48/80 86/47/80 82/40/77
f 72/33/73 88/50/81 87/49/82 69/46/31
f 78/32/72 82/40/77 72/33/73
f 82/40/77 88/50/81 72/33/73
f 82/40/77 80/51/83 88/50/81
f 85/48/80 83/53/80 84/52/80 86/47/80
f 80/51/83 84/52/80 83/55/80 79/54/84
f 79/56/84 83/59/80 85/58/80 81/57/76
f 82/40/77 86/47/80 84/52/80 80/51/83
f 87/60/82 91/63/85 92/62/86 88/61/81
f 84/64/80 90/67/87 89/66/88 83/65/80
f 92/62/86 96/69/89 94/68/90 90/67/87
f 96/69/89 95/71/91 93/70/92 94/68/90
f 89/72/88 93/75/92 95/74/91 91/73/85
f 90/67/87 94/68/90 93/70/92 89/66/88
f 91/63/85 95/71/91 96/69/89 92/62/86
f 60/19/66 97/16/16 58/14/63
f 45/9/61 57/4/55 51/8/58
f 52/11/59 55/7/56 46/10/60
f 49/5/5 98/6/57 55/7/56 47/76/52
f 43/21/68 60/19/66 58/14/63
f 52/11/59 56/18/65 59/12/62
f 55/7/56 53/13/13 47/76/52
f 43/21/68 44/17/64 51/8/58
f 60/19/66 49/5/5 54/77/53
f 54/77/53 97/16/16 60/19/66
f 44/17/64 63/2/54 56/18/65
f 58/14/63 64/20/67 43/21/68
f 43/21/68 64/20/67 44/17/64
f 50/15/15 61/22/22 58/14/63
f 63/2/54 48/3/3 56/18/65
