# Blender v2.65 (sub 0) OBJ File: 'dogthing.blend'
# www.blender.org
mtllib dogthing.mtl
o Cube
v 0.274234 0.743627 0.085292
v 0.253783 0.737608 0.305295
v 0.305295 1.251081 0.307885
v 0.305295 1.251081 0.369316
v 0.305295 0.945786 0.258380
v 0.305295 0.945786 0.305295
v 0.152647 1.102042 0.305295
v 0.101978 0.709040 0.675952
v 0.196320 1.153948 0.179580
v 0.071116 0.654191 0.022751
v 0.071499 0.836623 0.675952
v 0.152648 0.945786 -0.033029
v 0.127313 0.674765 0.321462
v 0.139980 0.657628 0.144217
v 0.127313 0.674765 0.321462
v 0.139980 0.657628 0.144217
v 0.127313 0.247659 0.359293
v 0.139980 0.230522 0.192571
v 0.021599 -0.000238 0.181629
v 0.021599 0.016900 0.359086
v 0.148912 0.030172 0.358046
v 0.161579 0.013035 0.184136
v 0.139980 0.520488 0.148595
v 0.000938 0.201741 -0.604148
v 0.140919 0.215014 -0.588534
v 0.000938 0.543086 -0.639734
v 0.140919 0.504981 -0.608470
v 0.000938 0.201741 -0.604148
v 0.140919 0.215014 -0.588534
v 0.000938 0.543086 -0.639734
v 0.140919 0.504981 -0.608470
v 0.000765 0.204616 -0.456922
v 0.140773 0.217426 -0.469874
v 0.000938 0.201741 -0.604148
v 0.140919 0.215014 -0.588534
v 0.000765 0.204616 -0.456922
v 0.140773 0.217426 -0.469874
v 0.019736 0.003490 -0.573633
v 0.159717 0.016763 -0.566430
v 0.019562 0.006365 -0.434094
v 0.159571 0.019175 -0.451707
v 0.015523 1.023192 0.024697
v -0.274234 0.743627 0.085292
v -0.253783 0.737608 0.305295
v -0.305295 1.251081 0.307885
v -0.305295 1.251081 0.369316
v 0.000000 1.102042 0.305295
v 0.000000 0.709040 0.675952
v -0.000000 1.014266 -0.007067
v -0.000000 0.645955 0.005182
v -0.305295 0.945786 0.258380
v -0.305295 0.945786 0.305295
v 0.000000 0.865296 0.675952
v -0.000000 0.945786 -0.033029
v -0.152647 1.102042 0.305295
v -0.101978 0.709040 0.675952
v -0.196320 1.153948 0.179580
v -0.071116 0.654191 0.022751
v -0.071499 0.836623 0.675952
v -0.152648 0.945786 -0.033029
v -0.000000 0.657628 0.144216
v -0.000000 0.674765 0.321462
v -0.127313 0.674765 0.321462
v -0.139980 0.657628 0.144217
v -0.000000 0.657628 0.144216
v -0.000000 0.674765 0.321462
v -0.127313 0.674765 0.321462
v -0.139980 0.657628 0.144217
v -0.000000 0.217249 0.185551
v -0.000000 0.234386 0.360269
v -0.127313 0.247659 0.359293
v -0.139980 0.230522 0.192571
v -0.021599 -0.000238 0.181629
v -0.021599 0.016900 0.359086
v -0.148912 0.030172 0.358046
v -0.161579 0.013035 0.184136
v -0.000000 0.558594 0.146328
v -0.139980 0.520488 0.148595
v -0.000938 0.201741 -0.604148
v -0.140919 0.215014 -0.588534
v -0.000938 0.543086 -0.639734
v -0.140919 0.504981 -0.608470
v -0.000938 0.201741 -0.604148
v -0.140919 0.215014 -0.588534
v -0.000938 0.543086 -0.639734
v -0.140919 0.504981 -0.608470
v -0.000765 0.204616 -0.456922
v -0.140773 0.217426 -0.469874
v -0.000938 0.201741 -0.604148
v -0.140919 0.215014 -0.588534
v -0.000765 0.204616 -0.456922
v -0.140773 0.217426 -0.469874
v -0.019736 0.003490 -0.573633
v -0.159717 0.016763 -0.566430
v -0.019562 0.006365 -0.434094
v -0.159571 0.019175 -0.451707
v -0.000000 0.686183 -0.024665
v -0.015523 1.023192 0.024697
vt 0.173471 0.361583
vt 0.223491 0.296971
vt 0.032581 0.319326
vt 0.144656 0.097659
vt 0.194697 0.000108
vt 0.169393 0.025959
vt 0.098109 0.105999
vt 0.164309 0.153786
vt 0.138187 0.116807
vt 0.135703 0.119626
vt 0.154246 0.159319
vt 0.030177 0.257981
vt 0.000108 0.254991
vt 0.339366 0.122707
vt 0.365913 0.098220
vt 0.349082 0.078181
vt 0.195898 0.223734
vt 0.059684 0.286476
vt 0.219260 0.072140
vt 0.319783 0.209400
vt 0.070380 0.815692
vt 0.350594 0.813118
vt 0.323505 0.735089
vt 0.241947 0.157217
vt 0.394386 0.160234
vt 0.327181 0.219559
vt 0.398826 0.167954
vt 0.232457 0.305718
vt 0.179989 0.366381
vt 0.396786 0.536353
vt 0.394263 0.303095
vt 0.488740 0.497347
vt 0.000108 0.736734
vt 0.010064 0.650712
vt 0.117888 0.650712
vt 0.107907 0.738085
vt 0.343393 0.581678
vt 0.428854 0.206434
vt 0.857467 0.169601
vt 0.871641 0.080313
vt 0.470748 0.600743
vt 0.438781 0.605962
vt 0.422188 0.650497
vt 0.505392 0.650497
vt 0.557650 0.558053
vt 0.870480 0.167757
vt 0.882991 0.082811
vt 0.891149 0.368766
vt 0.864266 0.304768
vt 0.910321 0.279838
vt 0.928379 0.272074
vt 0.999892 0.234717
vt 0.978765 0.414205
vt 0.996825 0.406443
vt 0.219234 0.650712
vt 0.218989 0.872242
vt 0.190317 0.872242
vt 0.190317 0.652576
vt 0.872363 0.300726
vt 0.899246 0.364726
vt 0.871633 0.243094
vt 0.904249 0.194612
vt 0.910833 0.198443
vt 0.878216 0.246926
vt 0.931877 0.270398
vt 0.936536 0.291869
vt 0.979089 0.246039
vt 0.978153 0.315041
vt 0.190101 0.759110
vt 0.118103 0.749514
vt 0.121851 0.650712
vt 0.190101 0.659734
vt 0.363144 0.781729
vt 0.351000 0.815894
vt 0.312544 0.733061
vt 0.053311 0.061648
vt 0.234627 0.006975
vn 0.000000 -0.995331 0.096225
vn 0.314859 -0.942289 0.113590
vn 0.000000 -0.672201 0.740349
vn 0.064302 0.868587 -0.491317
vn 0.000000 0.701621 -0.712516
vn -0.343577 0.934324 -0.094638
vn -0.204627 0.826411 0.524552
vn 0.976684 0.011292 -0.214240
vn 0.397809 0.873287 -0.281198
vn 0.273507 0.666982 0.693014
vn 0.928800 0.019562 0.370006
vn 0.411206 0.340495 0.845515
vn 0.000000 0.520218 0.853999
vn 0.323283 -0.802271 -0.501816
vn 0.000000 -0.890133 -0.455611
vn 0.000000 -0.362346 -0.932005
vn 0.795618 -0.579089 0.177770
vn 0.454573 -0.544359 0.704947
vn 0.450789 0.241890 -0.859218
vn 0.387432 -0.920377 -0.052614
vn 0.809687 -0.405530 -0.424177
vn 0.000000 -0.998871 0.046968
vn 0.747520 -0.014374 -0.664052
vn 0.000000 -0.027467 -0.999603
vn 0.679556 0.065157 0.730705
vn 0.000000 0.087985 0.996094
vn 0.660756 0.063631 0.747856
vn 0.939940 0.272988 -0.204779
vn 0.937407 -0.243263 -0.249062
vn 0.000000 -0.007752 0.999969
vn 0.000000 -0.752037 -0.659078
vn -0.503159 -0.653462 -0.565477
vn -0.520798 -0.601978 0.605243
vn 0.000000 0.619526 -0.784936
vn 0.758293 0.651753 -0.012146
vn 0.264718 0.964110 -0.019044
vn 0.653859 -0.535264 -0.534715
vn 0.615528 -0.490371 0.616932
vn 0.157048 -0.086520 -0.983764
vn 0.093142 -0.995453 0.019715
vn 0.912198 -0.409589 0.009186
vn 0.999969 0.000122 0.001190
vn 0.001465 0.316721 -0.948485
vn -0.748772 -0.138005 -0.648274
vn 0.693564 -0.008698 -0.720298
vn 0.634693 0.160466 0.755882
vn -0.718894 0.023988 0.694693
vn -0.656423 0.555834 0.509995
vn -0.651753 0.493912 -0.575518
vn 0.504044 0.668294 0.547044
vn 0.488998 0.581011 -0.650563
vn 0.000000 0.989166 0.146672
vn 0.000000 0.164312 -0.986389
vn -0.314859 -0.942289 0.113590
vn -0.064302 0.868587 -0.491317
vn 0.204627 0.826411 0.524552
vn 0.343577 0.934324 -0.094638
vn -0.976684 0.011292 -0.214240
vn -0.928800 0.019562 0.370006
vn -0.273507 0.666982 0.693014
vn -0.397809 0.873287 -0.281198
vn -0.411206 0.340495 0.845515
vn -0.323283 -0.802271 -0.501816
vn -0.795618 -0.579089 0.177770
vn -0.454573 -0.544359 0.704947
vn -0.450789 0.241890 -0.859218
vn -0.387432 -0.920377 -0.052614
vn -0.809687 -0.405530 -0.424177
vn -0.747520 -0.014374 -0.664052
vn -0.679556 0.065157 0.730705
vn -0.660756 0.063631 0.747856
vn -0.939940 0.272988 -0.204779
vn -0.937407 -0.243263 -0.249062
vn 0.520798 -0.601978 0.605243
vn 0.503159 -0.653462 -0.565477
vn -0.264718 0.964110 -0.019044
vn -0.758293 0.651753 -0.012146
vn -0.653859 -0.535264 -0.534715
vn -0.615528 -0.490371 0.616932
vn -0.157048 -0.086520 -0.983764
vn -0.912198 -0.409589 0.009186
vn -0.093142 -0.995453 0.019715
vn -0.999969 0.000122 0.001190
vn -0.001465 0.316721 -0.948485
vn -0.693564 -0.008698 -0.720298
vn 0.748772 -0.138005 -0.648274
vn 0.718894 0.023988 0.694693
vn -0.634693 0.160466 0.755882
vn 0.651753 0.493912 -0.575518
vn 0.656423 0.555834 0.509995
vn -0.488998 0.581011 -0.650563
vn -0.504044 0.668294 0.547044
usemtl Material.002
s 1
f 62/1/1 13/2/2 48/3/3
f 9/4/4 49/5/5 42/6/6 7/7/7
f 5/8/8 3/9/9 4/10/10 6/11/11
f 11/12/12 7/7/7 53/13/13
f 10/14/14 50/15/15 97/16/16
f 5/8/8 6/11/11 2/17/17
f 8/18/18 11/12/12 53/13/13 48/3/3
f 9/4/4 12/19/19 49/5/5
f 2/17/17 13/2/2 14/20/20
f 3/9/9 9/4/4 7/7/7 4/10/10
f 11/21/12 6/22/11 7/23/7
f 5/8/8 1/24/21 12/19/19
f 2/17/17 6/11/11 8/18/18
f 5/8/8 12/19/19 9/4/4
f 10/14/14 14/20/20 61/25/22
f 61/25/22 14/20/20 16/26/23 65/27/24
f 62/1/1 13/2/2 15/28/25 66/29/26
f 16/26/23 15/28/25 17/30/27
f 16/26/23 17/30/27 23/31/28
f 17/30/27 18/32/29 23/31/28
f 70/33/30 69/34/31 19/35/32 20/36/33
f 15/28/25 66/29/26 70/37/30 17/30/27
f 77/38/34 23/31/28 27/39/35 26/40/36
f 22/41/37 21/42/38 20/43/33 19/44/32
f 17/30/27 70/37/30 20/43/33 21/42/38
f 69/45/31 18/32/29 22/41/37 19/44/32
f 18/32/29 17/30/27 21/42/38 22/41/37
f 65/27/24 16/26/23 23/31/28 77/38/34
f 26/40/36 27/39/35 31/46/39 30/47/39
f 18/32/29 69/45/31 32/48/40 33/49/41
f 23/31/28 18/32/29 27/39/35
f 18/32/29 33/49/41 27/39/35
f 33/49/41 25/50/42 27/39/35
f 30/47/39 31/46/39 29/51/39 28/52/39
f 25/50/42 24/53/43 28/54/39 29/51/39
f 24/55/43 26/56/36 30/57/39 28/58/39
f 27/39/35 25/50/42 29/51/39 31/46/39
f 32/48/40 33/49/41 37/59/44 36/60/45
f 29/61/39 28/62/39 34/63/46 35/64/47
f 37/59/44 35/64/47 39/65/48 41/66/49
f 41/66/49 39/65/48 38/67/50 40/68/51
f 34/69/46 36/70/45 40/71/51 38/72/50
f 35/64/47 34/63/46 38/67/50 39/65/48
f 36/60/45 37/59/44 41/66/49 40/68/51
f 12/19/19 10/14/14 97/16/16
f 3/9/9 5/8/8 9/4/4
f 6/73/11 4/74/10 7/75/7
f 49/5/5 47/76/52 7/7/7 42/6/6
f 1/24/21 10/14/14 12/19/19
f 6/11/11 11/12/12 8/18/18
f 7/7/7 47/76/52 53/13/13
f 1/24/21 5/8/8 2/17/17
f 12/19/19 54/77/53 49/5/5
f 54/77/53 12/19/19 97/16/16
f 2/17/17 8/18/18 13/2/2
f 10/14/14 1/24/21 14/20/20
f 1/24/21 2/17/17 14/20/20
f 50/15/15 10/14/14 61/25/22
f 13/2/2 8/18/18 48/3/3
f 62/1/1 48/3/3 63/2/54
f 57/4/55 55/7/56 98/6/57 49/5/5
f 51/8/58 52/11/59 46/10/60 45/9/61
f 59/12/62 53/13/13 55/7/56
f 58/14/63 97/16/16 50/15/15
f 51/8/58 44/17/64 52/11/59
f 56/18/65 48/3/3 53/13/13 59/12/62
f 57/4/55 49/5/5 60/19/66
f 44/17/64 64/20/67 63/2/54
f 45/9/61 46/10/60 55/7/56 57/4/55
f 59/21/62 55/23/56 52/22/59
f 51/8/58 60/19/66 43/24/68
f 44/17/64 56/18/65 52/11/59
f 51/8/58 57/4/55 60/19/66
f 58/14/63 61/25/22 64/20/67
f 61/25/22 65/27/24 68/26/69 64/20/67
f 62/1/1 66/29/26 67/28/70 63/2/54
f 68/26/69 71/30/71 67/28/70
f 68/26/69 78/31/72 71/30/71
f 78/31/72 72/32/73 71/30/71
f 70/33/30 74/36/74 73/35/75 69/34/31
f 67/28/70 71/30/71 70/37/30 66/29/26
f 77/38/34 81/40/76 82/39/77 78/31/72
f 76/41/78 73/44/75 74/43/74 75/42/79
f 71/30/71 75/42/79 74/43/74 70/37/30
f 69/45/31 73/44/75 76/41/78 72/32/73
f 72/32/73 76/41/78 75/42/79 71/30/71
f 65/27/24 77/38/34 78/31/72 68/26/69
f 81/40/76 85/47/80 86/46/80 82/39/77
f 72/32/73 88/49/81 87/48/82 69/45/31
f 78/31/72 82/39/77 72/32/73
f 82/39/77 88/49/81 72/32/73
f 82/39/77 80/50/83 88/49/81
f 85/47/80 83/52/80 84/51/80 86/46/80
f 80/50/83 84/51/80 83/54/80 79/53/84
f 79/55/84 83/58/80 85/57/80 81/56/76
f 82/39/77 86/46/80 84/51/80 80/50/83
f 87/48/82 91/60/85 92/59/86 88/49/81
f 84/61/80 90/64/87 89/63/88 83/62/80
f 92/59/86 96/66/89 94/65/90 90/64/87
f 96/66/89 95/68/91 93/67/92 94/65/90
f 89/69/88 93/72/92 95/71/91 91/70/85
f 90/64/87 94/65/90 93/67/92 89/63/88
f 91/60/85 95/68/91 96/66/89 92/59/86
f 60/19/66 97/16/16 58/14/63
f 45/9/61 57/4/55 51/8/58
f 52/73/59 55/75/56 46/74/60
f 49/5/5 98/6/57 55/7/56 47/76/52
f 43/24/68 60/19/66 58/14/63
f 52/11/59 56/18/65 59/12/62
f 55/7/56 53/13/13 47/76/52
f 43/24/68 44/17/64 51/8/58
f 60/19/66 49/5/5 54/77/53
f 54/77/53 97/16/16 60/19/66
f 44/17/64 63/2/54 56/18/65
f 58/14/63 64/20/67 43/24/68
f 43/24/68 64/20/67 44/17/64
f 50/15/15 61/25/22 58/14/63
f 63/2/54 48/3/3 56/18/65
